:FULLY-SPECIFIED
:FORCE-ALL-JOINTS-BE-3DOF
:DEGREES
170
root 6.65944 16.1049 -25.732 3.55772 31.571 1.00164
lfemur -24.3942 30.3048 -18.2322
ltibia 37.4716 0 0
lfoot -7.47682 11.1209 0
ltoes 32.235 0 0
rfemur -27.756 -8.42582 -3.35519
rtibia 74.2988 0 0
rfoot 8.60242 -24.163 0
rtoes 45.3288 0 0
lowerback 2.36186 -6.50197 -2.10896
upperback 0.0257958 -8.73883 -1.59675
thorax -1.18075 -4.35387 -0.176842
lowerneck -9.95392 -6.58391 -1.94307
upperneck 1.92062 -8.81474 5.36265
head 2.7401 -4.21952 1.58129
lclavicle 3.43239e-14 -8.64254e-15 0
lhumerus -47.9453 -41.1478 113.756
lradius 51.7028 0 0
lwrist 13.2329 0 0
lhand 37.5676 23.7843 0
lfingers 7.12502 0 0
lthumb 60.3481 37.1793 0
rclavicle 3.43239e-14 -8.64254e-15 0
rhumerus -49.123 -20.9834 -72.7426
rradius 91.5797 0 0
rwrist -17.8965 0 0
rhand -23.9707 -22.1101 0
rfingers 7.12502 0 0
rthumb 2.50584 -412.056 0
171
root 6.62718 16.0859 -25.7272 3.62252 30.9831 1.08333
lfemur -23.8261 29.7375 -17.8949
ltibia 36.9063 0 0
lfoot -7.98521 10.7139 0
ltoes 32.4957 0 0
rfemur -27.8278 -8.63322 -3.44603
rtibia 73.8885 0 0
rfoot 7.97971 -23.4091 0
rtoes 45.5938 0 0
lowerback 2.26728 -6.41155 -2.07975
upperback 0.0130983 -8.61568 -1.70435
thorax -1.14701 -4.29278 -0.312228
lowerneck -9.97961 -6.46106 -1.78476
upperneck 1.95521 -8.67131 5.30957
head 2.74947 -4.14713 1.5444
lclavicle 3.35344e-14 -9.58823e-15 0
lhumerus -48.1486 -41.2526 113.805
lradius 51.7439 0 0
lwrist 13.4471 0 0
lhand 37.623 23.8882 0
lfingers 7.12502 0 0
lthumb 60.3945 37.2272 0
rclavicle 3.35344e-14 -9.58823e-15 0
rhumerus -48.294 -21.0873 -71.7029
rradius 90.9047 0 0
rwrist -17.9653 0 0
rhand -24.2247 -22.7838 0
rfingers 7.12502 0 0
rthumb 2.26063 -412.724 0
172
root 6.59012 16.0642 -25.7217 3.69694 30.3078 1.17715
lfemur -23.1736 29.0858 -17.5075
ltibia 36.2569 0 0
lfoot -8.56914 10.2463 0
ltoes 32.7952 0 0
rfemur -27.9102 -8.87144 -3.55037
rtibia 73.4173 0 0
rfoot 7.26446 -22.5431 0
rtoes 45.8982 0 0
lowerback 2.15864 -6.30771 -2.0462
upperback -0.0014859 -8.47422 -1.82795
thorax -1.10825 -4.22262 -0.467731
lowerneck -10.0091 -6.31994 -1.60294
upperneck 1.99495 -8.50657 5.2486
head 2.76023 -4.06397 1.50203
lclavicle 3.26276e-14 -1.06744e-14 0
lhumerus -48.3821 -41.373 113.861
lradius 51.7911 0 0
lwrist 13.6931 0 0
lhand 37.6866 24.0075 0
lfingers 7.12502 0 0
lthumb 60.4478 37.2822 0
rclavicle 3.26276e-14 -1.06744e-14 0
rhumerus -47.3418 -21.2067 -70.5087
rradius 90.1295 0 0
rwrist -18.0443 0 0
rhand -24.5164 -23.5575 0
rfingers 7.12502 0 0
rthumb 1.97898 -413.493 0
173
root 6.5486 16.0398 -25.7155 3.78032 29.5512 1.28227
lfemur -22.4425 28.3556 -17.0735
ltibia 35.5294 0 0
lfoot -9.2234 9.72254 0
ltoes 33.1308 0 0
rfemur -28.0026 -9.13835 -3.66728
rtibia 72.8894 0 0
rfoot 6.46307 -21.5728 0
rtoes 46.2392 0 0
lowerback 2.03692 -6.19135 -2.0086
upperback -0.0178267 -8.31572 -1.96643
thorax -1.06483 -4.144 -0.641965
lowerneck -10.0422 -6.16184 -1.39921
upperneck 2.03947 -8.32199 5.18029
head 2.77229 -3.97081 1.45456
lclavicle 3.16116e-14 -1.18915e-14 0
lhumerus -48.6437 -41.5079 113.924
lradius 51.8439 0 0
lwrist 13.9687 0 0
lhand 37.7578 24.1411 0
lfingers 7.12502 0 0
lthumb 60.5075 37.3438 0
rclavicle 3.16116e-14 -1.18915e-14 0
rhumerus -46.275 -21.3404 -69.1706
rradius 89.2609 0 0
rwrist -18.1329 0 0
rhand -24.8433 -24.4245 0
rfingers 7.12502 0 0
rthumb 1.6634 -414.353 0
174
root 6.50295 16.013 -25.7087 3.87201 28.7193 1.39786
lfemur -21.6387 27.5528 -16.5962
ltibia 34.7295 0 0
lfoot -9.94278 9.14659 0
ltoes 33.4998 0 0
rfemur -28.1042 -9.43183 -3.79582
rtibia 72.3089 0 0
rfoot 5.58191 -20.5059 0
rtoes 46.6141 0 0
lowerback 1.90308 -6.06341 -1.96727
upperback -0.035794 -8.14145 -2.11869
thorax -1.01708 -4.05756 -0.83354
lowerneck -10.0785 -5.98799 -1.1752
upperneck 2.08842 -8.11903 5.10518
head 2.78555 -3.86837 1.40237
lclavicle 3.04945e-14 -1.32296e-14 0
lhumerus -48.9314 -41.6561 113.994
lradius 51.902 0 0
lwrist 14.2718 0 0
lhand 37.8361 24.2881 0
lfingers 7.12502 0 0
lthumb 60.5731 37.4116 0
rclavicle 3.04945e-14 -1.32296e-14 0
rhumerus -45.1019 -21.4874 -67.6993
rradius 88.3059 0 0
rwrist -18.2303 0 0
rhand -25.2027 -25.3778 0
rfingers 7.12502 0 0
rthumb 1.31642 -415.3 0
175
root 6.45349 15.9839 -25.7013 3.97133 27.8182 1.52308
lfemur -20.7678 26.6831 -16.0793
ltibia 33.8629 0 0
lfoot -10.7221 8.52268 0
ltoes 33.8995 0 0
rfemur -28.2142 -9.74975 -3.93507
rtibia 71.6801 0 0
rfoot 4.62737 -19.3502 0
rtoes 47.0203 0 0
lowerback 1.7581 -5.92482 -1.92249
upperback -0.0552577 -7.95266 -2.28363
thorax -0.965353 -3.96393 -1.04107
lowerneck -10.1179 -5.79967 -0.932533
upperneck 2.14145 -7.89917 5.02381
head 2.79992 -3.7574 1.34582
lclavicle 2.92843e-14 -1.46793e-14 0
lhumerus -49.243 -41.8168 114.069
lradius 51.965 0 0
lwrist 14.6001 0 0
lhand 37.921 24.4473 0
lfingers 7.12502 0 0
lthumb 60.6442 37.485 0
rclavicle 2.92843e-14 -1.46793e-14 0
rhumerus -43.8312 -21.6466 -66.1055
rradius 87.2713 0 0
rwrist -18.3358 0 0
rhand -25.592 -26.4104 0
rfingers 7.12502 0 0
rthumb 0.940537 -416.325 0
176
root 6.40056 15.9528 -25.6934 4.07762 26.8537 1.65708
lfemur -19.8359 25.7523 -15.526
ltibia 32.9355 0 0
lfoot -11.5561 7.85496 0
ltoes 34.3273 0 0
rfemur -28.332 -10.09 -4.0841
rtibia 71.0072 0 0
rfoot 3.60582 -18.1134 0
rtoes 47.455 0 0
lowerback 1.60293 -5.77649 -1.87457
upperback -0.0760876 -7.75062 -2.46015
thorax -0.909997 -3.86371 -1.26317
lowerneck -10.16 -5.59812 -0.672835
upperneck 2.1982 -7.66388 4.93674
head 2.81529 -3.63863 1.28531
lclavicle 2.79892e-14 -1.62306e-14 0
lhumerus -49.5765 -41.9887 114.15
lradius 52.0324 0 0
lwrist 14.9514 0 0
lhand 38.0118 24.6177 0
lfingers 7.12502 0 0
lthumb 60.7203 37.5636 0
rclavicle 2.79892e-14 -1.62306e-14 0
rhumerus -42.4713 -21.8171 -64.3998
rradius 86.1641 0 0
rwrist -18.4487 0 0
rhand -26.0087 -27.5155 0
rfingers 7.12502 0 0
rthumb 0.53827 -417.422 0
177
root 6.34449 15.9199 -25.685 4.19022 25.832 1.79904
lfemur -18.8487 24.7663 -14.9399
ltibia 31.9531 0 0
lfoot -12.4396 7.14763 0
ltoes 34.7804 0 0
rfemur -28.4567 -10.4504 -4.24196
rtibia 70.2943 0 0
rfoot 2.52365 -16.8032 0
rtoes 47.9155 0 0
lowerback 1.43856 -5.61937 -1.82381
upperback -0.0981537 -7.53659 -2.64715
thorax -0.851355 -3.75756 -1.49845
lowerneck -10.2047 -5.38462 -0.397726
upperneck 2.25832 -7.41463 4.84449
head 2.83158 -3.51283 1.22121
lclavicle 2.66172e-14 -1.78741e-14 0
lhumerus -49.9298 -42.1708 114.235
lradius 52.1038 0 0
lwrist 15.3236 0 0
lhand 38.108 24.7982 0
lfingers 7.12502 0 0
lthumb 60.8009 37.6468 0
rclavicle 2.66172e-14 -1.78741e-14 0
rhumerus -41.0306 -21.9976 -62.5929
rradius 84.9912 0 0
rwrist -18.5684 0 0
rhand -26.4501 -28.6863 0
rfingers 7.12502 0 0
rthumb 0.112131 -418.585 0
178
root 6.28561 15.8853 -25.6762 4.30846 24.7592 1.94811
lfemur -17.8119 23.7309 -14.3244
ltibia 30.9214 0 0
lfoot -13.3673 6.40484 0
ltoes 35.2563 0 0
rfemur -28.5877 -10.8289 -4.40774
rtibia 69.5456 0 0
rfoot 1.38723 -15.4272 0
rtoes 48.399 0 0
lowerback 1.26596 -5.45437 -1.7705
upperback -0.121326 -7.31183 -2.84352
thorax -0.789775 -3.64608 -1.74552
lowerneck -10.2515 -5.16041 -0.108827
upperneck 2.32146 -7.15288 4.74763
head 2.84868 -3.38071 1.15389
lclavicle 2.51765e-14 -1.95999e-14 0
lhumerus -50.3008 -42.3621 114.325
lradius 52.1788 0 0
lwrist 15.7145 0 0
lhand 38.209 24.9877 0
lfingers 7.12502 0 0
lthumb 60.8855 37.7343 0
rclavicle 2.51765e-14 -1.95999e-14 0
rhumerus -39.5178 -22.1872 -60.6955
rradius 83.7595 0 0
rwrist -18.694 0 0
rhand -26.9136 -29.9157 0
rfingers 7.12502 0 0
rthumb -0.335368 -419.805 0
179
root 6.22425 15.8493 -25.6671 4.43169 23.6411 2.10346
lfemur -16.7315 22.6519 -13.683
ltibia 29.8462 0 0
lfoot -14.3342 5.63077 0
ltoes 35.7522 0 0
rfemur -28.7242 -11.2233 -4.58051
rtibia 68.7655 0 0
rfoot 0.202959 -13.9934 0
rtoes 48.9029 0 0
lowerback 1.08608 -5.28242 -1.71495
upperback -0.145474 -7.07761 -3.04816
thorax -0.725601 -3.5299 -2.00299
lowerneck -10.3004 -4.92677 0.192239
upperneck 2.38725 -6.88011 4.64668
head 2.8665 -3.24303 1.08374
lclavicle 2.36751e-14 -2.13984e-14 0
lhumerus -50.6874 -42.5614 114.418
lradius 52.2569 0 0
lwrist 16.1218 0 0
lhand 38.3142 25.1852 0
lfingers 7.12502 0 0
lthumb 60.9737 37.8253 0
rclavicle 2.36751e-14 -2.13984e-14 0
rhumerus -37.9412 -22.3848 -58.7181
rradius 82.4759 0 0
rwrist -18.8249 0 0
rhand -27.3966 -31.1968 0
rfingers 7.12502 0 0
rthumb -0.801713 -421.077 0
